<svg xmlns="http://www.w3.org/2000/svg" xmlns:xlink="http://www.w3.org/1999/xlink" version="1.1" x="0px" y="0px" viewBox="0 0 738 139.1" enable-background="new 0 0 738 139.1" xml:space="preserve" style="fill: rgb(0, 0, 0);" role="img">
<g id="__id361_soa0b48ocm">
	<circle cx="302.5" cy="22.1" r="8" style="fill: rgb(255, 255, 255);"></circle>
	<circle cx="410.9" cy="104.7" r="8" style="fill: rgb(255, 255, 255);"></circle>
	<circle cx="478.3" cy="69.5" r="8" style="fill: rgb(255, 255, 255);"></circle>
	<circle cx="613.3" cy="116" r="8" style="fill: rgb(255, 255, 255);"></circle>
	<circle cx="193.2" cy="30.1" r="8" style="fill: rgb(255, 255, 255);"></circle>
	<circle cx="211" cy="96.7" r="8" style="fill: rgb(255, 255, 255);"></circle>
	<circle cx="89.2" cy="52.6" r="8" style="fill: rgb(255, 255, 255);"></circle>
	<circle cx="9" cy="44.6" r="8" style="fill: rgb(255, 255, 255);"></circle>
	<circle cx="670" cy="36.6" r="8" style="fill: rgb(255, 255, 255);"></circle>
</g>
<g id="__id362_soa0b48ocm">
	<circle cx="452" cy="22.1" r="8" style="fill: rgb(71, 125, 112);"></circle>
	<circle cx="541.9" cy="77.5" r="8" style="fill: rgb(71, 125, 112);"></circle>
	<circle cx="621.3" cy="10" r="8" style="fill: rgb(71, 125, 112);"></circle>
	<circle cx="110" cy="106" r="8" style="fill: rgb(71, 125, 112);"></circle>
	<circle cx="8" cy="131.1" r="8" style="fill: rgb(71, 125, 112);"></circle>
	<circle cx="126" cy="8" r="8" style="fill: rgb(71, 125, 112);"></circle>
	<circle cx="348" cy="75.1" r="8" style="fill: rgb(71, 125, 112);"></circle>
	<circle cx="730" cy="104.7" r="8" style="fill: rgb(71, 125, 112);"></circle>
</g>
<g id="__id363_soa0b48ocm">
	<circle cx="256" cy="59" r="8" style="fill: rgb(242, 140, 74);"></circle>
	<circle cx="297.9" cy="104.7" r="8" style="fill: rgb(242, 140, 74);"></circle>
	<circle cx="553" cy="22.1" r="8" style="fill: rgb(242, 140, 74);"></circle>
	<circle cx="36" cy="96.7" r="8" style="fill: rgb(242, 140, 74);"></circle>
	<circle cx="52" cy="22.1" r="8" style="fill: rgb(242, 140, 74);"></circle>
	<circle cx="503.9" cy="116" r="8" style="fill: rgb(242, 140, 74);"></circle>
	<circle cx="387" cy="40.6" r="8" style="fill: rgb(242, 140, 74);"></circle>
	<circle cx="154" cy="67.1" r="8" style="fill: rgb(242, 140, 74);"></circle>
	<circle cx="608.7" cy="60.6" r="8" style="fill: rgb(242, 140, 74);"></circle>
	<circle cx="678.2" cy="88.7" r="8" style="fill: rgb(242, 140, 74);"></circle>
	<circle cx="726" cy="10" r="8" style="fill: rgb(242, 140, 74);"></circle>
</g>
</svg>